<?xml version="1.0" encoding="utf-8"?>
<!-- Generator: Adobe Illustrator 17.1.0, SVG Export Plug-In . SVG Version: 6.00 Build 0)  -->
<!DOCTYPE svg PUBLIC "-//W3C//DTD SVG 1.1//EN" "http://www.w3.org/Graphics/SVG/1.1/DTD/svg11.dtd">
<svg version="1.1" id="Layer_2" xmlns="http://www.w3.org/2000/svg" xmlns:xlink="http://www.w3.org/1999/xlink" x="0px" y="0px"
	 viewBox="0 0 44.155 12.093" enable-background="new 0 0 44.155 12.093" xml:space="preserve">
    <g>
		<g>
			<path fill="#333333" d="M42.748,11.229c0.845-0.632,1.407-1.748,1.407-2.984l0,0l0.001-0.01l0,0c0,0-0.001-0.002-0.001-0.009l0,0
				c0.001-0.948-0.552-1.769-1.082-2.248l0,0l0.001-0.001l-0.001,0.001l-0.004-0.004h-0.001l-0.013-0.012
				c-0.788-0.717-1.834-0.974-2.759-1.249l0,0c-0.467-0.138-0.88-0.28-1.163-0.472l0,0c-0.281-0.192-0.439-0.415-0.441-0.763l0,0
				c0.003-0.376,0.227-0.781,0.558-0.951l0,0c0.256-0.13,0.643-0.194,0.984-0.194l0,0c0.945-0.015,1.923,0.45,2.229,0.628
				c0.367,0.213,0.543,0.372,0.543,0.372l0.74-2.164l-0.103-0.087C42.632,0.215,41.519,0.002,40.185,0l0,0l-0.002,0.001h-0.009
				c-1.165,0-2.11,0.3-2.963,0.938l0,0c-0.849,0.637-1.432,1.504-1.433,2.738l0,0c0,0-0.001,0.004,0,0.015l0,0l-0.001,0.007
				c0.001,0.948,0.46,1.581,0.991,2.059l0,0l0.005,0.004h0.001l0.013,0.011c0.787,0.716,1.808,0.931,2.734,1.207l0,0
				c0.465,0.137,0.929,0.25,1.244,0.449l0,0c0.28,0.173,0.512,0.33,0.531,0.84l0,0c0.001,0.019,0.001,0.038,0.001,0.056l0,0
				c0.001,0.305-0.063,0.615-0.368,0.787l0,0c-0.308,0.174-0.685,0.272-1.263,0.277l0,0c-0.016,0-0.032,0-0.047,0l0,0
				c-1.167,0-2.091-0.379-2.921-0.924l0,0l-0.301-0.215l-0.9,2.43l0.102,0.088c1.011,0.87,2.547,1.326,3.88,1.326l0,0h0.006l0,0
				C40.653,12.093,41.904,11.863,42.748,11.229L42.748,11.229z M39.485,12.093C39.487,12.093,39.487,12.093,39.485,12.093
				L39.485,12.093L39.485,12.093L39.485,12.093z"/>
		</g>
		<polygon fill="#333333" points="7.058,4.539 2.721,4.539 2.721,0.235 0,0.235 0,0.397 0,11.807 2.721,11.807 2.721,7.054
			7.058,7.054 7.058,11.807 9.78,11.807 9.78,0.235 7.058,0.235 		"/>
		<path fill="#333333" d="M30.662,7.213c-0.006,1.312-0.802,2.268-1.994,2.269c-1.208-0.002-2.023-0.958-2.029-2.269V0.235h-2.68
			v7.074c-0.001,1.357,0.305,2.556,1.128,3.416c0.824,0.861,1.996,1.369,3.581,1.368h0.006c1.576,0,2.722-0.507,3.542-1.368
			c0.822-0.86,1.116-2.059,1.114-3.416V0.235h-2.667V7.213z"/>
		<path fill="#333333" d="M16.004,0.237l-0.038,0.101l-4.311,11.469h2.787l0.815-2.383h3.589l0.843,2.383h2.835l-4.379-11.57H16.004
			z M16.044,7.005l0.973-2.864l0.984,2.864H16.044z"/>
	</g>
</svg>
